<?xml version="1.0" encoding="UTF-8" standalone="no"?>
<!-- Created with Inkscape (http://www.inkscape.org/) -->

<svg
   xmlns:dc="http://purl.org/dc/elements/1.1/"
   xmlns:cc="http://creativecommons.org/ns#"
   xmlns:rdf="http://www.w3.org/1999/02/22-rdf-syntax-ns#"
   xmlns:svg="http://www.w3.org/2000/svg"
   xmlns="http://www.w3.org/2000/svg"
   xmlns:sodipodi="http://sodipodi.sourceforge.net/DTD/sodipodi-0.dtd"
   xmlns:inkscape="http://www.inkscape.org/namespaces/inkscape"
   width="1.1e+02mm"
   height="41mm"
   viewBox="0 0 1.1e+02 41"
   version="1.1"
   id="svg16"
   sodipodi:docname="cavalo.svg"
   inkscape:version="0.92.5 (2060ec1f9f, 2020-04-08)">
  <defs
     id="defs10" />
  <sodipodi:namedview
     id="base"
     pagecolor="#ffffff"
     bordercolor="#666666"
     borderopacity="1.0"
     inkscape:pageopacity="0.0"
     inkscape:pageshadow="2"
     inkscape:zoom="1.4"
     inkscape:cx="2.5e+02"
     inkscape:cy="2.9e+02"
     inkscape:document-units="mm"
     inkscape:current-layer="layer1"
     showgrid="false"
     inkscape:window-width="1920"
     inkscape:window-height="1017"
     inkscape:window-x="-8"
     inkscape:window-y="-8"
     inkscape:window-maximized="1"
     fit-margin-top="-40"
     fit-margin-left="0"
     fit-margin-right="0"
     fit-margin-bottom="0" />
  <metadata
     id="metadata13">
    <rdf:RDF>
      <cc:Work
         rdf:about="">
        <dc:format>image/svg+xml</dc:format>
        <dc:type
           rdf:resource="http://purl.org/dc/dcmitype/StillImage" />
        <dc:title />
      </cc:Work>
    </rdf:RDF>
  </metadata>
  <g
     inkscape:label="Layer 1"
     inkscape:groupmode="layer"
     id="layer1"
     transform="translate(-45,-130)">
    <path
       style="fill:none;stroke:#000000;stroke-width:0.92px;stroke-linecap:butt;stroke-linejoin:miter;stroke-opacity:1"
       d="m 170,540 c 30,0 70,50 90,20 70,-100 150,-110 180,-90 20,10 -30,10 -50,30 -20,20 10,60 -20,110 10,20 30,30 50,30 30,-30 60,-70 120,-100 50,10 90,10 30,-40 10,-140 -60,-170 -150,-170 -90,0 -150,80 -250,50"
       transform="scale(0.26)"
       id="path29"
       inkscape:connector-curvature="0"
       sodipodi:nodetypes="csssccccsc" />
  </g>
</svg>
